<svg width="81" height="80" viewBox="0 0 81 80" fill="none" xmlns="http://www.w3.org/2000/svg">
<rect width="25.1624" height="6.2906" transform="matrix(-0.72074 0.693205 0.72074 0.693205 18.1355 57.4302)" fill="white"/>
<path fill-rule="evenodd" clip-rule="evenodd" d="M44.2696 66.0043C28.0411 66.0043 14.8853 52.9169 14.8853 36.7728C14.8853 20.6288 28.0411 7.54138 44.2696 7.54138C60.4981 7.54138 73.6539 20.6288 73.6539 36.7728C73.6539 52.9169 60.4981 66.0043 44.2696 66.0043ZM44.2696 73.3122C23.984 73.3122 7.53923 56.9529 7.53923 36.7728C7.53923 16.5927 23.984 0.233521 44.2696 0.233521C64.5552 0.233521 81 16.5927 81 36.7728C81 56.9529 64.5552 73.3122 44.2696 73.3122Z" fill="white"/>
<path d="M42 24.2336L42 49.2335L47.9954 49.2335L47.9955 24.2335L42 24.2336Z" fill="white"/>
<path d="M57.2336 34.2335L32.2336 34.2335L32.2336 40.229L57.2336 40.229L57.2336 34.2335Z" fill="white"/>
</svg>
